<svg xmlns="http://www.w3.org/2000/svg" xmlns:xlink="http://www.w3.org/1999/xlink" viewBox="0 0 19.84 19.84"><defs><style>.a{fill:none;}.b{clip-path:url(#a);}.c{fill:#ffe785;}</style><clipPath id="a" transform="translate(0 0)"><rect class="a" width="19.83" height="19.83"/></clipPath></defs><g class="b"><path class="c" d="M2.11,2.05c-.08.08-.1.22,0,.44A4.57,4.57,0,0,0,3.16,4.1a1.07,1.07,0,0,0,1.28.21.86.86,0,0,0-.07-1.16A3.94,3.94,0,0,0,2.53,2c-.23-.06-.35,0-.42,0" transform="translate(0 0)"/><path class="c" d="M.44,1.39c-.35.15.06.66-.27,1.48S-.08,4.62.7,4.62s.88-1.16.67-1.94S.71,1.27.44,1.39" transform="translate(0 0)"/><path class="c" d="M1.21.44C1.36.09,1.87.5,2.69.17S4.44-.08,4.44.7s-1.16.88-1.94.67S1.09.71,1.21.44" transform="translate(0 0)"/><path class="c" d="M17.73,2.05c.08.08.09.22,0,.44A4.61,4.61,0,0,1,16.67,4.1a1.07,1.07,0,0,1-1.28.21.86.86,0,0,1,.08-1.16A3.89,3.89,0,0,1,17.31,2c.23-.06.34,0,.42,0" transform="translate(0 0)"/><path class="c" d="M19.4,1.39c.35.15-.07.66.27,1.48s.24,1.75-.53,1.75-.88-1.16-.68-1.94.67-1.41.94-1.29" transform="translate(0 0)"/><path class="c" d="M18.63.44C18.48.09,18,.5,17.14.17S15.39-.08,15.39.7s1.17.88,1.94.67,1.41-.66,1.3-.93" transform="translate(0 0)"/><path class="c" d="M17.73,17.78c.08-.07.09-.22,0-.44a4.7,4.7,0,0,0-1.08-1.61,1.08,1.08,0,0,0-1.28-.2.86.86,0,0,0,.08,1.16,4,4,0,0,0,1.84,1.13c.23.05.34,0,.42,0" transform="translate(0 0)"/><path class="c" d="M19.4,18.45c.35-.15-.07-.66.27-1.49s.24-1.75-.53-1.75-.88,1.17-.68,1.94.67,1.41.94,1.3" transform="translate(0 0)"/><path class="c" d="M18.63,19.4c-.15.35-.66-.07-1.49.27s-1.75.24-1.75-.53,1.17-.88,1.94-.68,1.41.67,1.3.94" transform="translate(0 0)"/><path class="c" d="M2.11,17.78c-.08-.07-.1-.22,0-.44a4.66,4.66,0,0,1,1.07-1.61,1.08,1.08,0,0,1,1.28-.2.86.86,0,0,1-.07,1.16,4,4,0,0,1-1.84,1.13c-.23.05-.35,0-.42,0" transform="translate(0 0)"/><path class="c" d="M.44,18.45C.09,18.3.5,17.79.17,17s-.25-1.75.53-1.75.88,1.17.67,1.94-.66,1.41-.93,1.3" transform="translate(0 0)"/><path class="c" d="M1.21,19.4c.15.35.66-.07,1.48.27s1.75.24,1.75-.53-1.16-.88-1.94-.68-1.41.67-1.29.94" transform="translate(0 0)"/><path class="c" d="M9.92,11.72a1.8,1.8,0,1,1,1.79-1.8,1.8,1.8,0,0,1-1.79,1.8m3.84-3.44a1.55,1.55,0,0,0-.31,0,1.36,1.36,0,0,0,0-.29,1.63,1.63,0,0,0-1.64-1.64l-.31,0a1.36,1.36,0,0,0,0-.29,1.65,1.65,0,0,0-3.29,0,1.36,1.36,0,0,0,0,.29l-.3,0A1.64,1.64,0,0,0,6.35,8a1.36,1.36,0,0,0,0,.29,1.53,1.53,0,0,0-.3,0,1.65,1.65,0,1,0,0,3.29,1.53,1.53,0,0,0,.3,0,1.36,1.36,0,0,0,0,.29A1.64,1.64,0,0,0,8,13.47a1.53,1.53,0,0,0,.3,0,1.53,1.53,0,0,0,0,.3,1.65,1.65,0,0,0,3.29,0,1.53,1.53,0,0,0,0-.3,1.55,1.55,0,0,0,.31,0,1.63,1.63,0,0,0,1.64-1.64,1.36,1.36,0,0,0,0-.29,1.55,1.55,0,0,0,.31,0,1.65,1.65,0,0,0,0-3.29" transform="translate(0 0)"/><path class="c" d="M9.92.88A.21.21,0,0,0,9.73,1c-.57,1-2.1.92-3.17,3.12A3.53,3.53,0,0,0,4.09,6.56C1.89,7.63,2,9.16,1,9.73a.22.22,0,0,0,0,.38c1,.57.92,2.09,3.12,3.16a3.49,3.49,0,0,0,2.47,2.45c1.07,2.21,2.6,2.14,3.17,3.13a.21.21,0,0,0,.19.1.23.23,0,0,0,.19-.1c.57-1,2.09-.92,3.16-3.13a3.46,3.46,0,0,0,2.47-2.45c2.2-1.07,2.14-2.59,3.12-3.16a.22.22,0,0,0,0-.38c-1-.57-.92-2.1-3.12-3.17a3.49,3.49,0,0,0-2.47-2.45C12.2,1.91,10.68,2,10.11,1A.24.24,0,0,0,9.92.88m0,1.32a8,8,0,0,0,.71.48,3.94,3.94,0,0,1,1.78,1.85l.19.39L13,5a2.54,2.54,0,0,1,1.79,1.77l.11.42.39.19A4.06,4.06,0,0,1,17.18,9.2a6.33,6.33,0,0,0,.47.72,6.22,6.22,0,0,0-.47.71,4,4,0,0,1-1.86,1.78l-.39.19-.11.42A2.53,2.53,0,0,1,13,14.8l-.43.11-.19.39a4,4,0,0,1-1.78,1.86,5.21,5.21,0,0,0-.71.48,5.3,5.3,0,0,0-.72-.48A4.06,4.06,0,0,1,7.42,15.3l-.19-.39-.42-.11A2.52,2.52,0,0,1,5,13L4.9,12.6l-.39-.19a3.94,3.94,0,0,1-1.85-1.78,8,8,0,0,0-.48-.71,8.19,8.19,0,0,0,.48-.72A4,4,0,0,1,4.51,7.42l.39-.19L5,6.81A2.52,2.52,0,0,1,6.81,5l.42-.12.19-.39A4,4,0,0,1,9.2,2.68a8.19,8.19,0,0,0,.72-.48" transform="translate(0 0)"/></g></svg>