<svg xmlns="http://www.w3.org/2000/svg" viewBox="0 0 530.19 705.63"><g id="Layer_2" data-name="Layer 2"><g id="Layer_1-2" data-name="Layer 1"><path d="M105.57,391.24c53.56,0,69.87-40.37,69.87-62.1,0-25.62-14-48.13-38.82-56.67,4.66-4.66,13.2-7,21.74-7,20.18,0,46.57,18.63,46.57,63.66,0,92.37-104.79,54.34-104.79,167.67,0,60.55,40.36,105.57,98.58,105.57,66,0,129.64-39.59,128.86-175.43L326,174.66c-.77-66.76,21-83.84,54.34-100.91H326.81c0-21.74-7-46.58-59-46.58-79.18,0-96.26,46.58-96.26,68.31s6.22,45.8,25.62,59C173.11,154.48,125,132,125,82.28S166.9,0,239.09,0h184c-11.65,10.87-30.28,29.5-30.28,77.63V427c0,132.74-62.1,207.26-194.07,207.26-57.44,0-152.14-41.14-152.14-135.85,0-42.69,14.75-61.32,27.94-76.85C59,420.74,0,398.22,0,339.23c0-97.81,126.53-93.15,126.53-145.94,0-10.87-5.43-19.41-17.08-19.41-14,0-21.73,13.2-21.73,29.5,0,86.17,111,177.77,191.74,205.71-5.44,4.66-19.41,8.54-35.71,8.54-85.39,0-197.17-93.15-197.17-192.51,0-36.49,17.07-76.08,62.87-76.08,22.52,0,43.47,16.3,43.47,44.25,0,72.19-106.34,69.86-106.34,145.94C46.58,354.75,61.33,391.24,105.57,391.24ZM471.19,536.4c0-55.11-33.38-101.69-107.9-145.16C302,355.53,204.16,312.84,204.16,206.49c0-97.81,95.48-138.18,153.7-138.18,68.31,0,133.52,34.93,133.52,107.9,0,50.46-34.94,72.2-61.33,76.08,10.87-14.75,17.08-38,17.08-68.31,0-34.94-23.29-84.62-89.27-84.62-33.38,0-94.71,20.19-94.71,96.26,0,69.09,55.9,91.6,107.91,121.87,65.2,38,159.13,82.29,159.13,211.15,0,117.21-98.59,177-191,177-97.81,0-187.08-52.79-187.08-152.93,0-47.35,36.48-93.93,76.07-93.93a23.83,23.83,0,0,1,8.54,1.56c-15.52,14.75-31.83,44.24-31.83,85.39,0,79.95,58.22,129.63,134.3,127.3C390.46,671.47,471.19,642,471.19,536.4Z"/></g></g></svg>
