<?xml version="1.0" encoding="UTF-8"?><svg id="Layer_2" xmlns="http://www.w3.org/2000/svg" viewBox="0 0 500 500"><g id="Layer_2-2"><g><path d="M188.4,127.54c0-37.64,33.67-77.02,60.86-115.33,27.19,38.31,60.86,77.69,60.86,115.33s-33.67,77.02-60.86,115.33c-27.19-38.31-60.86-77.69-60.86-115.33Z"/><g><path d="M23.2,25.36c22.16-2.8,56.93,9.42,75.4,27.52,18.19,18.39,30.46,52.99,27.64,75.06-22.16,2.8-56.92-9.42-75.4-27.52-18.18-18.39-30.46-52.99-27.64-75.06Z"/><polygon points="45.41 105.83 45.41 105.83 45.41 105.83 45.41 105.83"/><path d="M66.96,1.99h111.32c0,9.9-24.82,35.83-59.52,39.2,0,0-19.36-21.15-52.9-32.9-3.44-1.21-2.54-6.3,1.11-6.3Z"/><path d="M40.21,123.27c-3.38,34.55-29.43,59.25-39.38,59.25V71.71c0-3.63,5.11-4.53,6.32-1.1,11.81,33.38,33.05,52.66,33.05,52.66Z"/></g><path d="M122.05,273.62c43.78,42.88,94.08,116.98,96.75,217.12,.14,5.15,5.22,9.25,11.4,9.25s11.44-4.26,11.4-9.51c-1.14-202.52-34.54-281.85-63.33-305.29-57.58-46.87-128.1,18.02-56.22,88.42Z"/><path d="M62.29,277.48c-68.86-1.05-72.82,84.25-7.17,101.05,54.07,13.82,119,55.7,128.43,114.33,.68,4.06,5.09,7.13,10.38,7.13h.72c5.96,0,10.75-3.85,10.45-8.48-5.09-87.26-85.84-213.15-142.81-214.03Z"/><path d="M53.45,413.59c-70.7,0-69.66,79.46-6.39,79.46,37.51,0,64.5-18.09,104.05,4.19,2.39,1.34,4.7,2.75,7.66,2.75,6.47,0,11.28-4.64,9.74-9.48-8.66-27.28-49.44-76.93-115.06-76.93Z"/><path d="M377.97,273.62c-43.78,42.88-94.08,116.98-96.75,217.12-.14,5.15-5.22,9.25-11.4,9.25s-11.44-4.26-11.4-9.51c1.14-202.52,34.54-281.85,63.33-305.29,57.58-46.87,128.1,18.02,56.22,88.42Z"/><path d="M437.73,277.48c68.86-1.05,72.82,84.25,7.17,101.05-54.07,13.82-119,55.7-128.43,114.33-.68,4.06-5.09,7.13-10.38,7.13h-.72c-5.96,0-10.75-3.85-10.45-8.48,5.09-87.26,85.84-213.15,142.81-214.03Z"/><path d="M446.55,413.59c70.7,0,69.66,79.46,6.39,79.46-37.51,0-64.5-18.09-104.05,4.19-2.39,1.34-4.7,2.75-7.66,2.75-6.47,0-11.28-4.64-9.74-9.48,8.66-27.28,49.44-76.93,115.06-76.93Z"/><g><path d="M476.82,23.37c-22.16-2.8-56.93,9.42-75.4,27.52-18.19,18.39-30.46,52.99-27.64,75.06,22.16,2.8,56.92-9.42,75.4-27.52,18.18-18.39,30.46-52.99,27.64-75.06Z"/><polygon points="454.61 103.84 454.61 103.84 454.61 103.84 454.61 103.84"/><path d="M433.06,0h-111.32c0,9.9,24.82,35.83,59.52,39.2,0,0,19.36-21.15,52.9-32.9C437.61,5.09,436.71,0,433.06,0Z"/><path d="M459.81,121.27c3.38,34.55,29.43,59.25,39.38,59.25V69.72c0-3.63-5.11-4.53-6.32-1.1-11.81,33.38-33.05,52.66-33.05,52.66Z"/></g></g></g></svg>