<?xml version="1.0" encoding="UTF-8"?><svg id="Layer_2" xmlns="http://www.w3.org/2000/svg" viewBox="0 0 500 500"><g id="Layer_2-2"><g><path d="M309.61,287.46c11.88,3.28,23.52,4.78,33.61,4.78,24.52,0,58.17-8.89,82.16-30.46,1.38,3.04,3.31,5.89,5.81,8.39,11.14,11.14,29.21,11.14,40.35,0,11.14-11.14,11.14-29.21,0-40.35-11.14-11.14-29.21-11.14-40.35,0-2.5,2.5-4.43,5.35-5.81,8.39-23.98-21.57-57.64-30.46-82.16-30.46-10.09,0-21.73,1.51-33.61,4.79-2.75-4.37-6.01-8.52-9.82-12.33-3.81-3.81-7.95-7.07-12.33-9.82,3.28-11.88,4.78-23.52,4.78-33.61,0-24.52-8.89-58.17-30.46-82.16,3.04-1.38,5.89-3.31,8.39-5.81,11.14-11.14,11.14-29.21,0-40.35-11.14-11.14-29.21-11.14-40.35,0-11.14,11.14-11.14,29.21,0,40.35,2.5,2.5,5.35,4.43,8.39,5.81-21.57,23.98-30.46,57.64-30.46,82.16,0,10.09,1.51,21.73,4.78,33.61-4.37,2.75-8.52,6.01-12.32,9.82-3.81,3.81-7.07,7.95-9.82,12.32-11.88-3.28-23.52-4.78-33.61-4.78-24.52,0-58.17,8.89-82.16,30.46-1.38-3.04-3.31-5.89-5.81-8.39-11.14-11.14-29.21-11.14-40.35,0-11.14,11.14-11.14,29.21,0,40.35,11.14,11.14,29.21,11.14,40.35,0,2.5-2.5,4.43-5.35,5.81-8.39,23.98,21.57,57.64,30.46,82.16,30.46,10.09,0,21.73-1.51,33.61-4.78,2.75,4.37,6.01,8.52,9.82,12.33,3.81,3.81,7.95,7.07,12.33,9.82-3.28,11.88-4.78,23.52-4.78,33.61,0,24.52,8.89,58.17,30.46,82.16-3.04,1.38-5.89,3.31-8.39,5.81-11.14,11.14-11.14,29.21,0,40.35,11.14,11.14,29.21,11.14,40.35,0,11.14-11.14,11.14-29.21,0-40.35-2.5-2.5-5.35-4.43-8.39-5.81,21.57-23.98,30.46-57.64,30.46-82.16,0-10.09-1.51-21.73-4.78-33.61,4.37-2.75,8.52-6.01,12.32-9.82,3.81-3.81,7.07-7.95,9.82-12.32Zm33.61-53.75c16.52,0,40.22,4.65,53.87,16.29-13.65,11.64-37.35,16.29-53.87,16.29-7.15,0-15.66-.88-24.1-2.81,1.73-8.9,1.73-18.06,0-26.96,8.45-1.94,16.95-2.81,24.1-2.81Zm-109.51-76.93c0-16.52,4.66-40.22,16.29-53.87,11.64,13.65,16.29,37.35,16.29,53.87,0,7.15-.88,15.66-2.81,24.1-8.9-1.73-18.06-1.73-26.96,0-1.94-8.45-2.81-16.95-2.81-24.1Zm-76.93,109.51c-16.52,0-40.22-4.66-53.87-16.29,13.65-11.64,37.35-16.29,53.87-16.29,7.15,0,15.66,.88,24.1,2.81-1.73,8.9-1.73,18.06,0,26.96-8.45,1.94-16.95,2.81-24.1,2.81Zm109.51,76.93c0,16.52-4.65,40.22-16.29,53.87-11.64-13.65-16.29-37.35-16.29-53.87,0-7.15,.88-15.66,2.81-24.1,8.9,1.73,18.06,1.73,26.96,0,1.94,8.45,2.81,16.95,2.81,24.1Z"/><path d="M92.46,195.7c22.39-11.94,66.49-16.11,89.18-9.08l4.99-4.99c-7.03-22.69-2.86-66.79,9.08-89.17C170.74,67.21,153.84,43.8,159.1,0c-24.17,6.94-46.49,44.95-36.49,73.42-30.01-30.01-66.08-33.66-80.56-31.37-2.29,14.47,2.08,49.83,32.09,79.84C45.67,111.89,6.94,134.92,0,159.1c43.8-5.26,67.21,11.64,92.46,36.6Z"/><polygon points="186.62 181.63 186.62 181.63 186.62 181.63 186.62 181.63"/><path d="M313.38,181.63l4.99,4.99c22.69-7.03,66.79-2.86,89.17,9.08,25.25-24.96,48.66-41.86,92.46-36.6-6.94-24.17-44.95-46.49-73.42-36.48,30.01-30.01,33.66-66.08,31.37-80.56-14.47-2.29-49.83,2.08-79.84,32.09,10-28.47-13.03-67.2-37.2-74.14,5.26,43.8-11.64,67.21-36.6,92.46,11.94,22.39,16.11,66.49,9.08,89.18Z"/><polygon points="318.37 186.62 318.37 186.62 318.37 186.62 318.37 186.62"/><polygon points="313.38 318.37 313.38 318.37 313.38 318.37 313.38 318.37"/><path d="M500,340.9c-43.8,5.26-67.21-11.64-92.46-36.6-22.39,11.94-66.49,16.11-89.18,9.08l-4.99,5c7.03,22.69,2.86,66.79-9.08,89.17,24.96,25.25,41.86,48.66,36.6,92.46,24.17-6.94,46.49-44.95,36.49-73.42,30.01,30.01,66.08,33.66,80.56,31.37,2.29-14.47-2.08-49.83-32.09-79.84,28.47,10,67.2-13.03,74.14-37.2Z"/><polygon points="181.63 313.38 181.63 313.38 181.63 313.38 181.63 313.38"/><path d="M186.62,318.37l-4.99-4.99c-22.69,7.03-66.79,2.86-89.17-9.08C67.21,329.26,43.8,346.16,0,340.9c6.94,24.17,44.95,46.49,73.42,36.48-30.01,30.01-33.66,66.08-31.37,80.56,14.47,2.29,49.83-2.08,79.84-32.09-10,28.47,13.03,67.2,37.2,74.14-5.26-43.8,11.64-67.21,36.6-92.46-11.94-22.39-16.11-66.49-9.08-89.18Z"/></g></g></svg>