<svg xmlns="http://www.w3.org/2000/svg" viewBox="0 0 218.66 218.66"><defs><style>.cls-1{fill:#fff;}</style></defs><g id="Layer_2" data-name="Layer 2"><g id="Layer_1-2" data-name="Layer 1"><path class="cls-1" d="M213.87,0H4.78A4.78,4.78,0,0,0,0,4.78V213.87a4.79,4.79,0,0,0,4.78,4.79H213.87a4.8,4.8,0,0,0,4.79-4.79V4.78A4.79,4.79,0,0,0,213.87,0ZM86.48,25.53c7.47,0,17,4.8,22.85,14.51,5.8-9.71,15.38-14.51,22.84-14.51s19.92,4.24,19.92,20.16c0,11.66-8.91,21.67-23.85,36.29a33.21,33.21,0,0,0-37.82,0c-15-14.62-23.86-24.63-23.86-36.29C66.56,29.77,79,25.53,86.48,25.53ZM193.13,132.17c0,7.46-4.25,19.92-20.16,19.92-11.66,0-21.67-8.91-36.29-23.85a33.25,33.25,0,0,0,0-37.82c14.62-15,24.63-23.86,36.29-23.86,15.91,0,20.16,12.46,20.16,19.93s-4.8,17-14.52,22.84C188.33,115.13,193.13,124.71,193.13,132.17ZM82,128.24c-14.62,14.94-24.63,23.85-36.29,23.85-15.92,0-20.16-12.46-20.16-19.92s4.8-17,14.51-22.84C30.33,103.52,25.53,94,25.53,86.49s4.24-19.93,20.16-19.93c11.66,0,21.67,8.91,36.29,23.86a33.21,33.21,0,0,0,0,37.82ZM38.07,14.64c6.42.5,20.17-1.22,31.74,4.62A28.71,28.71,0,0,0,67.21,21,27.71,27.71,0,0,0,58.9,31.08a33,33,0,0,0-3.16,14.61c0,.75,0,1.49.08,2.23-3-5.78-6.91-12-11.09-16.2s-10-4.61-13.8-.79-3.54,9.47.79,13.8,10.42,8,16.2,11.09c-.74,0-1.48-.08-2.23-.08A33,33,0,0,0,31.08,58.9,27.71,27.71,0,0,0,21,67.21a28.71,28.71,0,0,0-1.74,2.6c-5.84-11.57-4.12-25.32-4.62-31.74-1-12.17-1.73-21.43-3.93-27.36C16.64,12.91,25.9,13.69,38.07,14.64Zm0,189.38c-12.17.95-21.43,1.73-27.36,3.92,2.2-5.92,3-15.19,3.93-27.35.5-6.43-1.22-20.17,4.62-31.75a26.15,26.15,0,0,0,1.74,2.6,27.64,27.64,0,0,0,10.08,8.32,33.16,33.16,0,0,0,14.61,3.16c.75,0,1.49,0,2.23-.09-5.78,3.06-12,6.92-16.2,11.09-4.33,4.34-4.61,10-.79,13.8s9.47,3.55,13.8-.79c4.18-4.17,8-10.41,11.09-16.2,0,.75-.08,1.49-.08,2.24a33,33,0,0,0,3.16,14.6,27.75,27.75,0,0,0,8.31,10.09,31,31,0,0,0,2.6,1.74C58.24,205.24,44.49,203.51,38.07,204Zm94.1-10.89c-7.46,0-17-4.8-22.84-14.52-5.81,9.72-15.38,14.52-22.85,14.52S66.56,188.88,66.56,173c0-11.66,8.91-21.67,23.86-36.29a33.25,33.25,0,0,0,37.82,0c14.94,14.62,23.85,24.63,23.85,36.29C152.09,188.88,139.63,193.13,132.17,193.13ZM180.59,204c-6.43-.51-20.17,1.22-31.75-4.62a28,28,0,0,0,2.6-1.74,27.67,27.67,0,0,0,8.32-10.09,33.12,33.12,0,0,0,3.16-14.6c0-.75,0-1.49-.09-2.24,3.06,5.79,6.92,12,11.09,16.2,4.34,4.34,10,4.61,13.8.79s3.55-9.46-.79-13.8c-4.17-4.17-10.41-8-16.2-11.09.75,0,1.49.09,2.24.09a33.12,33.12,0,0,0,14.6-3.16,27.67,27.67,0,0,0,10.09-8.32,28,28,0,0,0,1.74-2.6c5.84,11.58,4.11,25.32,4.62,31.75.95,12.16,1.73,21.43,3.92,27.35C202,205.75,192.75,205,180.59,204ZM204,38.07c-.51,6.42,1.22,20.17-4.62,31.74a31,31,0,0,0-1.74-2.6,27.75,27.75,0,0,0-10.09-8.31A33,33,0,0,0,173,55.74c-.75,0-1.49,0-2.24.08,5.79-3,12-6.91,16.2-11.09,4.34-4.33,4.61-10,.79-13.8s-9.46-3.54-13.8.79c-4.17,4.18-8,10.42-11.09,16.2,0-.74.09-1.48.09-2.23a33.16,33.16,0,0,0-3.16-14.61A27.64,27.64,0,0,0,151.44,21a26.15,26.15,0,0,0-2.6-1.74c11.58-5.84,25.32-4.12,31.75-4.62,12.16-1,21.43-1.73,27.35-3.93C205.75,16.64,205,25.9,204,38.07Z"/></g></g></svg>