<?xml version="1.0" encoding="UTF-8"?><svg id="Layer_2" xmlns="http://www.w3.org/2000/svg" viewBox="0 0 500 500"><g id="Layer_2-2"><g><path d="M200.43,178.29c14.08-9.75,31.15-15.48,49.57-15.48s35.49,5.73,49.57,15.48c39.19-38.32,62.54-64.56,62.54-95.13,0-41.73-32.67-52.85-52.22-52.85s-44.67,12.57-59.89,38.05c-15.22-25.48-40.33-38.05-59.89-38.05s-52.23,11.12-52.23,52.85c0,30.57,23.35,56.81,62.54,95.13Z"/><path d="M299.57,321.71c-14.08,9.75-31.15,15.48-49.57,15.48s-35.49-5.73-49.57-15.48c-39.19,38.32-62.54,64.56-62.54,95.13,0,41.73,32.67,52.85,52.23,52.85s44.67-12.57,59.89-38.05c15.22,25.48,40.33,38.05,59.89,38.05s52.22-11.12,52.22-52.85c0-30.57-23.35-56.81-62.54-95.13Z"/><path d="M469.69,190.11c0-19.56-11.12-52.22-52.85-52.22-30.57,0-56.81,23.35-95.13,62.54,9.75,14.08,15.48,31.15,15.48,49.57s-5.73,35.49-15.48,49.57c38.32,39.19,64.56,62.54,95.13,62.54,41.73,0,52.85-32.67,52.85-52.22s-12.57-44.67-38.05-59.89c25.48-15.22,38.05-40.33,38.05-59.89Z"/><path d="M83.16,137.89c-41.73,0-52.85,32.67-52.85,52.22s12.57,44.67,38.05,59.89c-25.48,15.22-38.05,40.33-38.05,59.89s11.12,52.22,52.85,52.22c30.57,0,56.81-23.35,95.13-62.54-9.75-14.08-15.48-31.15-15.48-49.57s5.73-35.49,15.48-49.57c-38.32-39.19-64.56-62.54-95.13-62.54Z"/><path d="M16.86,138.31c15.01-19.88,38.55-30.82,66.31-30.82,2.29,0,4.54,.1,6.76,.26-16.67-8.41-36.05-19.76-48.45-32.16-11.36-11.36-12.08-26.17-2.07-36.18,10.01-10.01,24.81-9.3,36.18,2.07,12.4,12.4,23.75,31.77,32.16,48.44-.16-2.23-.26-4.48-.26-6.76,0-27.75,10.95-51.29,30.82-66.3-26.46-8.97-54.76-5.79-68.97-6.91C38.51,7.54,15.02,5.56,0,0,5.56,15.02,7.54,38.51,9.95,69.34c1.11,14.2-2.07,42.5,6.91,68.97Z"/><path d="M490.05,430.66c-1.11-14.2,2.07-42.5-6.91-68.97-15.01,19.88-38.55,30.82-66.3,30.82-2.29,0-4.54-.1-6.76-.26,16.67,8.41,36.05,19.76,48.45,32.16,11.36,11.36,12.08,26.17,2.07,36.18-10.01,10.01-24.81,9.3-36.18-2.07-12.4-12.39-23.75-31.77-32.16-48.44,.16,2.23,.26,4.48,.26,6.76,0,27.75-10.95,51.3-30.82,66.3,26.47,8.97,54.76,5.79,68.97,6.91,30.83,2.41,54.32,4.39,69.34,9.95-5.56-15.02-7.54-38.51-9.95-69.34Z"/><path d="M107.49,416.84c0-2.29,.1-4.54,.26-6.76-8.41,16.67-19.76,36.05-32.16,48.44-11.37,11.36-26.17,12.08-36.18,2.07-10.01-10.01-9.3-24.81,2.07-36.18,12.4-12.4,31.77-23.75,48.45-32.16-2.23,.16-4.48,.26-6.76,.26-27.75,0-51.29-10.95-66.31-30.82-8.97,26.47-5.79,54.76-6.91,68.97-2.42,30.83-4.39,54.32-9.95,69.34,15.02-5.56,38.51-7.54,69.34-9.95,14.2-1.11,42.5,2.07,68.97-6.91-19.88-15.01-30.82-38.55-30.82-66.3Z"/><path d="M392.51,83.16c0,2.29-.1,4.54-.26,6.76,8.41-16.67,19.76-36.05,32.16-48.45,11.36-11.36,26.17-12.08,36.18-2.07,10.01,10.01,9.3,24.81-2.07,36.18-12.4,12.4-31.77,23.75-48.45,32.16,2.23-.16,4.48-.26,6.76-.26,27.75,0,51.29,10.95,66.3,30.82,8.97-26.46,5.79-54.76,6.91-68.97,2.42-30.83,4.39-54.32,9.95-69.34-15.02,5.56-38.51,7.54-69.34,9.95-14.2,1.11-42.5-2.07-68.97,6.91,19.88,15.01,30.82,38.55,30.82,66.3Z"/></g></g></svg>