<svg xmlns="http://www.w3.org/2000/svg" viewBox="0 0 212.32 212.32"><g id="Layer_2" data-name="Layer 2"><g id="Layer_1-2" data-name="Layer 1"><path d="M143.24,69.08a37.39,37.39,0,0,0-74.16,0,37.39,37.39,0,0,0,0,74.16,37.39,37.39,0,0,0,74.16,0,37.39,37.39,0,0,0,0-74.16Zm-29.72,44.44a57.48,57.48,0,0,1-7.36,21.64,57.12,57.12,0,0,1-7.35-21.64,57.53,57.53,0,0,1-21.65-7.36,57.17,57.17,0,0,1,21.65-7.35,57.17,57.17,0,0,1,7.35-21.65,57.53,57.53,0,0,1,7.36,21.65,57.12,57.12,0,0,1,21.64,7.35A57.48,57.48,0,0,1,113.52,113.52Z"/><path d="M189.42,22.9V3.16A3.15,3.15,0,0,0,186.26,0H26.06A3.15,3.15,0,0,0,22.9,3.16V22.9H3.16A3.15,3.15,0,0,0,0,26.06v160.2a3.15,3.15,0,0,0,3.16,3.16H22.9v19.74a3.15,3.15,0,0,0,3.16,3.16h160.2a3.15,3.15,0,0,0,3.16-3.16V189.42h19.74a3.16,3.16,0,0,0,3.16-3.16V26.06a3.16,3.16,0,0,0-3.16-3.16ZM34.18,34.18H50.6V50.6H34.18Zm144,144H161.71V161.71h16.43Zm22.9,0H189.42V153.59a3.16,3.16,0,0,0-3.16-3.16H153.59a3.17,3.17,0,0,0-3.16,3.16v32.67a3.16,3.16,0,0,0,3.16,3.16h24.55V201h-144V189.42H58.73a3.15,3.15,0,0,0,3.15-3.16V153.59a3.16,3.16,0,0,0-3.15-3.16H26.06a3.16,3.16,0,0,0-3.16,3.16v24.55H11.28v-144H22.9V58.73a3.15,3.15,0,0,0,3.16,3.15H58.73a3.15,3.15,0,0,0,3.15-3.15V26.06a3.15,3.15,0,0,0-3.15-3.16H34.18V11.28h144V22.9H153.59a3.16,3.16,0,0,0-3.16,3.16V58.73a3.16,3.16,0,0,0,3.16,3.15h32.67a3.15,3.15,0,0,0,3.16-3.15V34.18H201Zm-166.86,0V161.71H50.6v16.43Zm144-144V50.6H161.71V34.18Z"/></g></g></svg>