<?xml version="1.0" encoding="UTF-8"?><svg id="Layer_2" xmlns="http://www.w3.org/2000/svg" viewBox="0 0 500 500"><g id="Layer_2-2"><g><path d="M250,0H6.68C2.99,0,0,2.99,0,6.68V493.32c0,3.69,2.99,6.68,6.68,6.68H493.32c3.69,0,6.68-2.99,6.68-6.68V6.68c0-3.69-2.99-6.68-6.68-6.68H250Zm112.82,322.86c23.97,8.6,49.35,.15,73.82,24.63,28.82,28.82,10.05,51.16,20.07,85.56,3.92,13.46,24.85,29.27,15.66,39.33-10.05,9.19-25.87-11.75-39.33-15.66-34.41-10.02-56.74,8.76-85.56-20.07-24.47-24.48-16.02-49.85-24.63-73.82-8.6-23.97-42.84-11.24-37.31,8.42,5.53,19.67,13.42,26.48,13.42,52.99s-13.61,51.77-48.97,51.77-48.97-25.25-48.97-51.77,7.89-33.33,13.42-52.99c5.53-19.67-28.71-32.39-37.31-8.42-8.6,23.97-.15,49.35-24.63,73.82-28.82,28.82-51.16,10.05-85.56,20.07-13.46,3.92-29.27,24.85-39.33,15.66-9.19-10.05,11.74-25.87,15.66-39.33,10.02-34.41-8.76-56.74,20.07-85.56,24.47-24.47,49.85-16.02,73.82-24.63,23.97-8.6,11.24-42.84-8.42-37.31-19.67,5.53-26.48,13.42-52.99,13.42s-51.77-13.61-51.77-48.97,25.25-48.97,51.77-48.97,33.33,7.89,52.99,13.42c19.67,5.53,32.39-28.71,8.42-37.31-23.97-8.6-49.35-.15-73.82-24.63-28.82-28.82-10.05-51.16-20.07-85.56-3.92-13.46-24.85-29.27-15.66-39.33,10.05-9.19,25.87,11.75,39.33,15.66,34.41,10.02,56.74-8.76,85.56,20.07,24.47,24.48,16.02,49.85,24.63,73.82,8.6,23.97,42.84,11.24,37.31-8.42-5.53-19.67-13.42-26.48-13.42-52.99s13.61-51.77,48.97-51.77,48.97,25.25,48.97,51.77-7.89,33.33-13.42,52.99c-5.53,19.67,28.71,32.39,37.31,8.42,8.6-23.97,.15-49.35,24.63-73.82,28.82-28.82,51.16-10.05,85.56-20.07,13.46-3.92,29.27-24.85,39.33-15.66,9.19,10.05-11.74,25.87-15.66,39.33-10.02,34.41,8.76,56.74-20.07,85.56-24.47,24.48-49.85,16.02-73.82,24.63s-11.24,42.84,8.42,37.31c19.67-5.53,26.48-13.42,52.99-13.42s51.77,13.61,51.77,48.97-25.25,48.97-51.77,48.97-33.33-7.89-52.99-13.42c-19.67-5.53-32.39,28.71-8.42,37.31Z"/><rect x="196.64" y="196.64" width="106.72" height="106.72" transform="translate(-103.55 250) rotate(-45)"/></g></g></svg>